<svg xmlns="http://www.w3.org/2000/svg" width="22.739" height="22.034" viewBox="0 0 22.739 22.034">
  <path id="_148839" data-name="148839" d="M12.468,1.738,15.033,7a1.225,1.225,0,0,0,.922.679l5.735.844a1.245,1.245,0,0,1,.679,2.116l-4.15,4.1a1.251,1.251,0,0,0-.352,1.1l.979,5.787a1.228,1.228,0,0,1-1.777,1.308L11.94,20.2a1.212,1.212,0,0,0-1.14,0L5.671,22.935a1.228,1.228,0,0,1-1.777-1.308l.979-5.787a1.251,1.251,0,0,0-.352-1.1l-4.15-4.1A1.245,1.245,0,0,1,1.05,8.527l5.735-.844A1.225,1.225,0,0,0,7.708,7l2.565-5.265A1.217,1.217,0,0,1,12.468,1.738Z" transform="translate(-0.001 -1.047)" fill="#fc0"/>
</svg>
