<svg xmlns="http://www.w3.org/2000/svg" width="31.033" height="31.026" viewBox="0 0 31.033 31.026">
  <path id="_148839" data-name="148839" d="M16.449,1.989l3.384,7.169a1.622,1.622,0,0,0,1.217.924l7.566,1.15a1.71,1.71,0,0,1,.9,2.881l-5.475,5.58a1.738,1.738,0,0,0-.464,1.5l1.292,7.88a1.632,1.632,0,0,1-2.344,1.781l-6.767-3.72a1.555,1.555,0,0,0-1.5,0l-6.767,3.72a1.632,1.632,0,0,1-2.344-1.781l1.292-7.88a1.738,1.738,0,0,0-.464-1.5L.49,14.112a1.71,1.71,0,0,1,.9-2.881l7.566-1.15a1.622,1.622,0,0,0,1.217-.924l3.384-7.169A1.585,1.585,0,0,1,16.449,1.989Z" transform="translate(0.516 -0.547)" fill="none" stroke="#707070" stroke-width="1"/>
</svg>
